<mxfile host="app.diagrams.net" agent="Mozilla/5.0 (Macintosh; Intel Mac OS X 10_15_7) AppleWebKit/537.36 (KHTML, like Gecko) Chrome/134.0.0.0 Safari/537.36" version="26.1.1">
  <diagram name="ページ1" id="pGrqefGvxsI7K41xdnb7">
    <mxGraphModel dx="1242" dy="785" grid="1" gridSize="10" guides="1" tooltips="1" connect="1" arrows="1" fold="1" page="1" pageScale="1" pageWidth="827" pageHeight="1169" math="0" shadow="0">
      <root>
        <mxCell id="0" />
        <mxCell id="1" parent="0" />
        <mxCell id="gyW0Ap8hpKm1ez11juP2-30" value="" style="rounded=0;whiteSpace=wrap;html=1;" vertex="1" parent="1">
          <mxGeometry x="30" y="160" width="520" height="530" as="geometry" />
        </mxCell>
        <mxCell id="gyW0Ap8hpKm1ez11juP2-29" value="" style="rounded=0;whiteSpace=wrap;html=1;" vertex="1" parent="1">
          <mxGeometry x="560" y="210" width="250" height="310" as="geometry" />
        </mxCell>
        <mxCell id="gyW0Ap8hpKm1ez11juP2-5" value="" style="group" vertex="1" connectable="0" parent="1">
          <mxGeometry x="40" y="440" width="180" height="200" as="geometry" />
        </mxCell>
        <mxCell id="gyW0Ap8hpKm1ez11juP2-2" value="" style="image;sketch=0;aspect=fixed;html=1;points=[];align=center;fontSize=12;image=img/lib/mscae/VM_Linux.svg;" vertex="1" parent="gyW0Ap8hpKm1ez11juP2-5">
          <mxGeometry x="20" width="134.78" height="124" as="geometry" />
        </mxCell>
        <mxCell id="gyW0Ap8hpKm1ez11juP2-4" value="&lt;h1 style=&quot;margin-top: 0px;&quot;&gt;Ansible&lt;br&gt;&lt;span style=&quot;background-color: transparent; color: light-dark(rgb(0, 0, 0), rgb(255, 255, 255)); font-size: 12px; font-weight: normal;&quot;&gt;AlmaLinux9&lt;/span&gt;&lt;/h1&gt;" style="text;html=1;whiteSpace=wrap;overflow=hidden;rounded=0;align=center;" vertex="1" parent="gyW0Ap8hpKm1ez11juP2-5">
          <mxGeometry y="130" width="180" height="70" as="geometry" />
        </mxCell>
        <mxCell id="gyW0Ap8hpKm1ez11juP2-6" value="" style="group" vertex="1" connectable="0" parent="1">
          <mxGeometry x="200" y="210" width="180" height="200" as="geometry" />
        </mxCell>
        <mxCell id="gyW0Ap8hpKm1ez11juP2-7" value="" style="image;sketch=0;aspect=fixed;html=1;points=[];align=center;fontSize=12;image=img/lib/mscae/VM_Linux.svg;" vertex="1" parent="gyW0Ap8hpKm1ez11juP2-6">
          <mxGeometry x="20" width="134.78" height="124" as="geometry" />
        </mxCell>
        <mxCell id="gyW0Ap8hpKm1ez11juP2-8" value="&lt;h1 style=&quot;margin-top: 0px;&quot;&gt;DNS&lt;br&gt;&lt;span style=&quot;background-color: transparent; color: light-dark(rgb(0, 0, 0), rgb(255, 255, 255)); font-size: 12px; font-weight: normal;&quot;&gt;AlmaLinux9&lt;/span&gt;&lt;/h1&gt;" style="text;html=1;whiteSpace=wrap;overflow=hidden;rounded=0;align=center;" vertex="1" parent="gyW0Ap8hpKm1ez11juP2-6">
          <mxGeometry y="130" width="180" height="70" as="geometry" />
        </mxCell>
        <mxCell id="gyW0Ap8hpKm1ez11juP2-9" value="" style="group" vertex="1" connectable="0" parent="1">
          <mxGeometry x="340" y="470" width="210" height="230" as="geometry" />
        </mxCell>
        <mxCell id="gyW0Ap8hpKm1ez11juP2-11" value="&lt;h1 style=&quot;margin-top: 0px;&quot;&gt;k8s masters x3&lt;br&gt;&lt;span style=&quot;background-color: transparent; color: light-dark(rgb(0, 0, 0), rgb(255, 255, 255)); font-size: 12px; font-weight: normal;&quot;&gt;AlmaLinux9&lt;/span&gt;&lt;/h1&gt;" style="text;html=1;whiteSpace=wrap;overflow=hidden;rounded=0;align=center;" vertex="1" parent="gyW0Ap8hpKm1ez11juP2-9">
          <mxGeometry y="130" width="180" height="70" as="geometry" />
        </mxCell>
        <mxCell id="gyW0Ap8hpKm1ez11juP2-13" value="" style="group" vertex="1" connectable="0" parent="gyW0Ap8hpKm1ez11juP2-9">
          <mxGeometry x="30" y="30" width="180" height="200" as="geometry" />
        </mxCell>
        <mxCell id="gyW0Ap8hpKm1ez11juP2-16" value="" style="group" vertex="1" connectable="0" parent="gyW0Ap8hpKm1ez11juP2-13">
          <mxGeometry x="-16" y="-38" width="180" height="200" as="geometry" />
        </mxCell>
        <mxCell id="gyW0Ap8hpKm1ez11juP2-14" value="" style="image;sketch=0;aspect=fixed;html=1;points=[];align=center;fontSize=12;image=img/lib/mscae/VM_Linux.svg;" vertex="1" parent="gyW0Ap8hpKm1ez11juP2-16">
          <mxGeometry x="31.22" y="-12" width="134.78" height="124" as="geometry" />
        </mxCell>
        <mxCell id="gyW0Ap8hpKm1ez11juP2-17" value="" style="image;sketch=0;aspect=fixed;html=1;points=[];align=center;fontSize=12;image=img/lib/mscae/VM_Linux.svg;" vertex="1" parent="gyW0Ap8hpKm1ez11juP2-16">
          <mxGeometry x="20" width="134.78" height="124" as="geometry" />
        </mxCell>
        <mxCell id="gyW0Ap8hpKm1ez11juP2-10" value="" style="image;sketch=0;aspect=fixed;html=1;points=[];align=center;fontSize=12;image=img/lib/mscae/VM_Linux.svg;" vertex="1" parent="gyW0Ap8hpKm1ez11juP2-9">
          <mxGeometry x="20" width="134.78" height="124" as="geometry" />
        </mxCell>
        <mxCell id="gyW0Ap8hpKm1ez11juP2-19" value="" style="group" vertex="1" connectable="0" parent="1">
          <mxGeometry x="580" y="280" width="210" height="230" as="geometry" />
        </mxCell>
        <mxCell id="gyW0Ap8hpKm1ez11juP2-20" value="&lt;h1 style=&quot;margin-top: 0px;&quot;&gt;k8s workers x2&lt;br&gt;&lt;span style=&quot;background-color: transparent; color: light-dark(rgb(0, 0, 0), rgb(255, 255, 255)); font-size: 12px; font-weight: normal;&quot;&gt;AlmaLinux9&lt;/span&gt;&lt;/h1&gt;" style="text;html=1;whiteSpace=wrap;overflow=hidden;rounded=0;align=center;" vertex="1" parent="gyW0Ap8hpKm1ez11juP2-19">
          <mxGeometry y="130" width="180" height="70" as="geometry" />
        </mxCell>
        <mxCell id="gyW0Ap8hpKm1ez11juP2-21" value="" style="group" vertex="1" connectable="0" parent="gyW0Ap8hpKm1ez11juP2-19">
          <mxGeometry x="30" y="30" width="180" height="200" as="geometry" />
        </mxCell>
        <mxCell id="gyW0Ap8hpKm1ez11juP2-22" value="" style="group" vertex="1" connectable="0" parent="gyW0Ap8hpKm1ez11juP2-21">
          <mxGeometry x="-16" y="-38" width="180" height="200" as="geometry" />
        </mxCell>
        <mxCell id="gyW0Ap8hpKm1ez11juP2-23" value="" style="image;sketch=0;aspect=fixed;html=1;points=[];align=center;fontSize=12;image=img/lib/mscae/VM_Linux.svg;" vertex="1" parent="gyW0Ap8hpKm1ez11juP2-22">
          <mxGeometry x="31.22" y="-12" width="134.78" height="124" as="geometry" />
        </mxCell>
        <mxCell id="gyW0Ap8hpKm1ez11juP2-24" value="" style="image;sketch=0;aspect=fixed;html=1;points=[];align=center;fontSize=12;image=img/lib/mscae/VM_Linux.svg;" vertex="1" parent="gyW0Ap8hpKm1ez11juP2-22">
          <mxGeometry x="20" width="134.78" height="124" as="geometry" />
        </mxCell>
        <mxCell id="gyW0Ap8hpKm1ez11juP2-25" value="" style="image;sketch=0;aspect=fixed;html=1;points=[];align=center;fontSize=12;image=img/lib/mscae/VM_Linux.svg;" vertex="1" parent="gyW0Ap8hpKm1ez11juP2-19">
          <mxGeometry x="20" width="134.78" height="124" as="geometry" />
        </mxCell>
        <mxCell id="gyW0Ap8hpKm1ez11juP2-28" value="" style="shape=image;html=1;verticalAlign=top;verticalLabelPosition=bottom;labelBackgroundColor=#ffffff;imageAspect=0;aspect=fixed;image=https://cdn1.iconfinder.com/data/icons/fruit-136/64/Fruit_iconfree_Filled_Outline_raspberry-healthy-organic-food-fruit_icon-128.png" vertex="1" parent="1">
          <mxGeometry x="570" y="180" width="58" height="58" as="geometry" />
        </mxCell>
        <mxCell id="gyW0Ap8hpKm1ez11juP2-31" value="" style="shape=image;html=1;verticalAlign=top;verticalLabelPosition=bottom;labelBackgroundColor=#ffffff;imageAspect=0;aspect=fixed;image=https://cdn0.iconfinder.com/data/icons/social-network-9/50/12-128.png;imageBackground=default;" vertex="1" parent="1">
          <mxGeometry x="40" y="132" width="78" height="78" as="geometry" />
        </mxCell>
        <mxCell id="gyW0Ap8hpKm1ez11juP2-32" value="" style="html=1;verticalLabelPosition=bottom;verticalAlign=top;outlineConnect=0;shadow=0;dashed=0;shape=mxgraph.rack.hpe_aruba.switches.jl084a_3810m_2930m_4_port_stacking_module;" vertex="1" parent="1">
          <mxGeometry x="380" y="30" width="82" height="20" as="geometry" />
        </mxCell>
        <mxCell id="gyW0Ap8hpKm1ez11juP2-34" value="" style="edgeStyle=elbowEdgeStyle;elbow=horizontal;endArrow=classic;html=1;curved=0;rounded=0;endSize=8;startSize=8;entryX=0.5;entryY=0;entryDx=0;entryDy=0;" edge="1" parent="1" source="gyW0Ap8hpKm1ez11juP2-32" target="gyW0Ap8hpKm1ez11juP2-29">
          <mxGeometry width="50" height="50" relative="1" as="geometry">
            <mxPoint x="490" y="350" as="sourcePoint" />
            <mxPoint x="720" y="60" as="targetPoint" />
            <Array as="points">
              <mxPoint x="680" y="130" />
            </Array>
          </mxGeometry>
        </mxCell>
        <mxCell id="gyW0Ap8hpKm1ez11juP2-35" value="" style="edgeStyle=elbowEdgeStyle;elbow=horizontal;endArrow=classic;html=1;curved=0;rounded=0;endSize=8;startSize=8;entryX=0.5;entryY=0;entryDx=0;entryDy=0;" edge="1" parent="1" source="gyW0Ap8hpKm1ez11juP2-32" target="gyW0Ap8hpKm1ez11juP2-30">
          <mxGeometry width="50" height="50" relative="1" as="geometry">
            <mxPoint x="472" y="50" as="sourcePoint" />
            <mxPoint x="695" y="220" as="targetPoint" />
            <Array as="points">
              <mxPoint x="290" y="100" />
            </Array>
          </mxGeometry>
        </mxCell>
      </root>
    </mxGraphModel>
  </diagram>
</mxfile>
